<svg preserveAspectRatio="none" overflow="visible" style="display: block;" width="35" height="64" viewBox="0 0 35 64" fill="none" xmlns="http://www.w3.org/2000/svg">
<g id="Group 8">
<path id="Vector" d="M15.8597 12.8489C17.5326 11.6648 20.4743 8.79258 22.7229 9.01189C23.3657 9.07454 24.0715 9.63304 24.4571 10.1565C24.9547 10.832 24.9579 11.9975 24.7935 12.8163C24.2955 15.2979 22.2729 17.1285 20.6727 18.955C20.4584 19.1996 19.6685 20.0447 19.5564 20.2568C20.433 20.6653 20.6784 20.9578 21.0671 21.8527C22.417 21.6123 23.9772 21.231 25.2148 22.0598C25.6294 22.3375 26.0499 22.9129 26.1353 23.4059C26.1566 23.5356 26.1734 23.666 26.1858 23.7969C28.3992 23.2236 29.9851 23.6883 30.2835 26.1816C30.5255 28.2034 29.8185 30.8063 28.6916 32.4912L28.7192 32.5283C29.0411 32.9544 29.6505 33.5118 30.0416 33.961C31.2976 35.4037 32.4234 37.6259 32.3227 39.5922C32.6758 40.5409 32.9759 41.3151 32.9985 42.3458C33.052 44.7842 31.6883 46.6142 30.2249 48.413C29.7196 51.5485 29.3852 54.6665 28.875 57.8002C28.7598 58.5083 28.631 59.2869 28.5927 60C27.4817 59.7049 24.9652 59.5344 23.6762 59.3427L9.07959 57.2296C9.30554 56.6388 9.5939 55.1159 9.79622 54.3888L11.025 49.829C11.4058 48.4635 11.8014 47.2663 12.057 45.8675C11.8856 45.6885 10.5329 44.86 10.2252 44.6556C8.92559 43.7947 7.64301 42.9086 6.37829 41.9977C5.36095 41.2741 3.90838 40.3578 3.16755 39.3843C1.81903 37.6122 1.90395 35.7034 2.18838 33.6614C2.58696 30.5794 3.53044 27.5921 4.9751 24.8378C5.47072 23.9016 6.12989 22.8698 6.68483 21.957C6.31403 21.4495 6.03223 20.7829 5.65537 20.2579C5.26711 19.7243 4.86471 19.2011 4.44867 18.6886C3.69 17.769 2.19938 16.2634 2.00744 15.0441C1.94228 14.63 2.31864 13.9724 2.6107 13.6594C3.29725 12.9326 4.24455 12.5056 5.24601 12.4715C7.39119 12.4109 10.6206 14.3016 12.1406 15.7323C12.4712 15.5174 12.8821 15.1276 13.1956 14.8657C13.9351 14.2478 15.0372 13.3092 15.8597 12.8489Z" fill="#FBEB1C"/>
<path id="Vector (Stroke)" d="M20.1387 7.52249C20.9256 7.18657 21.8849 6.9198 22.9069 7.02217C23.7054 7.10214 24.377 7.46672 24.8425 7.80044C25.2672 8.10488 25.6517 8.47782 25.9592 8.87017L26.0863 9.03899L26.1866 9.18655C26.6672 9.92911 26.8349 10.7611 26.8901 11.3996C26.9517 12.1126 26.8936 12.8219 26.7786 13.4107C26.4441 15.122 25.6139 16.5226 24.753 17.6695C24.1859 18.425 23.4975 19.1973 22.9033 19.8658C22.97 19.8619 23.0369 19.8589 23.1035 19.8568C24.0624 19.8268 25.2363 19.974 26.3337 20.7287L26.5016 20.8513C26.8844 21.1477 27.207 21.5138 27.454 21.8773C27.4656 21.8943 27.4764 21.9121 27.488 21.9296C28.2721 21.906 29.0815 22.0281 29.8389 22.4181C31.3748 23.2089 32.0806 24.7499 32.2774 26.4378C32.5172 28.4959 32.0372 30.8918 31.1559 32.8411C31.29 32.9848 31.4285 33.1368 31.5504 33.2805C32.9068 34.8806 34.2924 37.4515 34.3297 40.0544C34.6371 40.9061 34.9708 41.9166 34.998 43.1909C35.0639 46.273 33.4904 48.5699 32.1235 50.3249C31.9128 51.7178 31.7303 53.1133 31.544 54.5339C31.3346 56.1306 31.1208 57.7588 30.8613 59.3957C30.7416 60.1509 30.6343 60.8294 30.6031 61.4252L30.4684 64L28.0324 63.3358C27.6541 63.2326 26.9096 63.1269 25.9476 63.0169C25.0852 62.9183 24.0552 62.8165 23.3633 62.7112L6.28374 60.172L7.19261 57.7317C7.24386 57.594 7.34064 57.2121 7.47639 56.6068C7.58858 56.1065 7.72664 55.4578 7.84289 55.0253L9.06792 50.3564L9.07031 50.3478L9.07271 50.3388C9.33919 49.3575 9.57688 48.5687 9.77535 47.778C9.50309 47.6009 9.22903 47.4231 9.11108 47.3426C7.79746 46.4489 6.50074 45.529 5.22219 44.5835L4.41324 44.0039C4.10434 43.7822 3.77286 43.5406 3.46919 43.3045C2.88977 42.8541 2.21303 42.2783 1.68342 41.6045L1.5795 41.4683C-0.299073 38.9331 -0.0854852 36.2132 0.206996 34.0567C0.63673 30.6632 1.64956 27.374 3.19861 24.3409L3.2006 24.3372L3.2022 24.3335C3.53578 23.6865 3.94264 22.9918 4.3265 22.3482C4.20141 22.1186 4.11552 21.9663 4.02954 21.8426C3.66804 21.3326 3.29356 20.8322 2.90644 20.342L2.64065 20.022C2.30755 19.6263 1.80552 19.0348 1.42962 18.5292C0.958696 17.8957 0.302391 16.9234 0.0723041 15.8269L0.0319364 15.6057C-0.100039 14.7444 0.209138 13.9858 0.374463 13.6318C0.576652 13.1989 0.855821 12.7697 1.15624 12.439L1.16023 12.4346L1.16463 12.4301C2.21928 11.2834 3.67441 10.6098 5.2126 10.5559L5.21859 10.5555H5.22459C6.81609 10.5093 8.53069 11.1732 9.88446 11.8807C10.6762 12.2944 11.4505 12.7793 12.1403 13.2831C12.8085 12.7077 13.8501 11.819 14.7378 11.2831C15.0849 11.0263 15.5034 10.682 16.0487 10.2387C16.597 9.79299 17.2379 9.27934 17.912 8.80558C18.5812 8.33535 19.3404 7.86328 20.1387 7.52249ZM22.7074 9.10521C20.4656 8.88065 17.5325 11.8213 15.8645 13.0338C15.0445 13.505 13.9459 14.4662 13.2086 15.0988L12.9588 15.32C12.6963 15.5557 12.4039 15.8212 12.1566 15.9863L12.0096 15.8477C10.4409 14.4023 7.35446 12.5874 5.28254 12.6475C4.28411 12.6825 3.33952 13.1198 2.65504 13.864L2.59988 13.9282C2.31899 14.2677 1.99307 14.8841 2.05392 15.2816C2.24529 16.53 3.73117 18.0719 4.48758 19.0135C4.90236 19.5382 5.30352 20.074 5.69061 20.6204C6.06634 21.1579 6.34732 21.8404 6.71699 22.3601C6.16372 23.2947 5.50648 24.3512 5.01236 25.3097C3.57202 28.1299 2.63157 31.1888 2.23418 34.3445C1.9506 36.4353 1.86571 38.39 3.2102 40.2045C3.94881 41.2013 5.39734 42.1393 6.41164 42.8802C7.67259 43.8129 8.95128 44.7203 10.247 45.6017C10.5538 45.8111 11.9026 46.6594 12.0735 46.8427C11.8187 48.2749 11.424 49.5007 11.0443 50.8988L9.81932 55.5677C9.6176 56.3122 9.32996 57.872 9.10469 58.4768L23.6579 60.6404C24.9429 60.8367 27.4518 61.0111 28.5595 61.3132C28.5978 60.5831 28.7261 59.7859 28.8409 59.061C29.3496 55.8523 29.6832 52.6595 30.187 49.449C31.6005 47.6646 32.9207 45.8504 32.9532 43.4688L32.9524 43.2366C32.9299 42.1814 32.6306 41.3887 32.2786 40.4174C32.3758 38.467 31.3253 36.2704 30.1211 34.7921L30.0044 34.6515C29.6145 34.1916 29.0068 33.6206 28.6858 33.1844L28.6583 33.1464C29.7818 31.4211 30.4866 28.7558 30.2454 26.6856C29.9478 24.1327 28.3666 23.6571 26.1599 24.244C26.1475 24.11 26.1307 23.9763 26.1095 23.8434C26.0296 23.3702 25.6563 22.8227 25.2694 22.5219L25.1918 22.4651C23.9579 21.6165 22.4021 22.0072 21.0563 22.2534L20.9852 22.0886C20.6358 21.2991 20.3697 21.0113 19.5503 20.6191C19.6621 20.4019 20.4493 19.5367 20.6631 19.2862C22.2086 17.4744 24.1498 15.6588 24.721 13.2369L24.7718 13.0007C24.9356 12.1623 24.9326 10.9688 24.4364 10.2771C24.076 9.77462 23.4349 9.24041 22.8281 9.12278L22.7074 9.10521Z" fill="white"/>
<path id="Vector_2" d="M9 30.0668C10.6541 26.24 14.4567 19.7377 19.5513 21.2143C20.4282 21.6218 20.6737 21.9136 21.0626 22.8065C22.4129 22.5666 23.9738 22.1862 25.2118 23.0131C25.6266 23.2901 26.0472 23.8642 26.1327 24.356C26.154 24.4855 26.1708 24.6156 26.1832 24.7461C28.3975 24.1742 29.984 24.6379 30.2825 27.1254C30.5245 29.1426 29.8173 31.7395 28.6899 33.4205L28.7176 33.4575C29.0396 33.8826 29.6493 34.4388 30.0405 34.887C31.2969 36.3263 32.4232 38.5435 32.3224 40.5052C32.6756 41.4517 32.9758 42.2241 32.9985 43.2524C33.052 45.6853 31.6878 47.511 30.2239 49.3057C29.9447 49.582 29.7471 49.753 29.4406 50L28.7874 49.4686C30.7623 47.7029 32.3633 45.3579 32.0709 42.6294C31.7344 39.491 29.0286 38.5576 27.1147 36.5222C26.708 36.0897 26.3473 35.6295 25.9094 35.2291C25.6522 34.9983 24.9634 35.1053 24.757 34.6721C24.1463 33.6175 24.4064 32.4212 24.6071 31.2977C24.8546 31.3674 25.1266 31.4273 25.3783 31.4878C25.346 32.2157 24.7042 34.8638 26.2877 34.3168C28.6744 33.4925 29.8684 29.0878 29.4095 26.8452C29.2629 26.1296 28.8338 25.6796 28.2768 25.338C25.4469 25.0813 23.016 27.4844 21.5153 29.6135C20.4079 31.1844 19.8177 32.6449 19.1199 34.4287C18.901 34.3441 18.6083 34.2672 18.3784 34.1998C19.1063 31.1176 22.298 26.0847 25.4584 25.0567C25.4128 24.9033 25.3626 24.7513 25.308 24.6009C24.7138 22.971 22.6556 23.1295 21.372 23.6906C18.4378 24.9732 16.0108 29.1442 14.8035 31.9318C14.5658 31.8032 14.291 31.6797 14.0448 31.5626C14.3138 30.7098 14.6322 30.2609 15.0472 29.4908C16.1077 27.5229 17.348 25.7644 18.967 24.2075C19.2829 23.9037 19.8901 23.566 20.2999 23.2155C19.7931 21.8463 18.5712 21.5874 17.2513 21.8957C14.2987 22.5852 12.4465 25.599 10.9716 27.9973C10.4999 28.7641 10.1895 29.6087 9.68535 30.3926C9.4427 30.2455 9.25927 30.1743 9 30.0668Z" fill="black"/>
<path id="Vector_3" d="M27 34.5759C27.8914 34.0051 28.0466 33.8882 28.6469 33L28.6724 33.0366C28.9691 33.4566 29.5309 34.0061 29.8914 34.4489C31.0492 35.871 32.087 38.0617 31.9942 40C31.7755 39.6686 31.6787 39.3166 31.4264 38.9852C30.6922 38.0211 29.8789 37.4514 28.9881 36.6826C28.2012 36.0034 27.6712 35.3624 27 34.5759Z" fill="#FBEB1C"/>
<path id="Vector_4" d="M6.61988 23C6.25422 22.4651 5.97633 21.7624 5.60469 21.209C5.22181 20.6466 4.82499 20.095 4.41472 19.5549C3.66657 18.5855 2.19661 16.9985 2.00734 15.7132C1.94308 15.2768 2.31422 14.5836 2.60224 14.2537C3.27927 13.4876 4.21343 13.0375 5.20101 13.0015C7.31645 12.9376 10.501 14.9306 12 16.4387C10.2098 18.2546 8.50636 20.0935 7.12053 22.28C6.97132 22.5154 6.80805 22.8027 6.61988 23Z" fill="#FBEB1C"/>
<path id="Vector_5" d="M12.0483 15.8637C12.3765 15.6503 12.7843 15.2631 13.0954 15.003C13.8293 14.3894 14.9231 13.4571 15.7394 13L16.2456 13.6723C15.5487 13.9907 14.1014 15.2547 13.4717 15.7803C7.41608 20.8377 2.87149 28.3219 2.80119 36.3472C2.79763 36.7533 3.22284 37.7204 3.38521 38.0919C3.9876 39.4702 5.91787 40.6119 7.12594 41.4749C9.76594 43.3539 12.4693 45.1428 15.2313 46.8386C16.2856 47.4928 17.9091 48.5812 19 49.1011L18.6168 50C17.7936 49.3565 17.1454 49.0279 16.2522 48.4942C15.2109 47.871 14.1838 47.2246 13.1716 46.5555C12.8104 46.3217 12.2988 46.0348 11.9654 45.7933C11.7952 45.6155 10.4528 44.7926 10.1474 44.5896C8.85759 43.7346 7.58468 42.8545 6.32949 41.9499C5.31982 41.2312 3.8782 40.3211 3.14297 39.3542C1.80461 37.5942 1.88889 35.6984 2.17117 33.6704C2.56675 30.6095 3.50312 27.6425 4.93689 24.907C5.42877 23.9773 6.08296 22.9525 6.63372 22.0459C6.8231 21.86 6.98742 21.5893 7.13758 21.3675C8.5323 19.3073 10.2466 17.5747 12.0483 15.8637Z" fill="black"/>
<path id="Vector_6" d="M15.0335 0.00500585C16.0676 -0.0539791 17.0305 0.41562 17.8642 1.02755C19.9154 2.5332 18.7855 5.49001 17.6193 7.17663C16.3306 9.04044 14.3263 11.3576 12.2033 11.9747C11.4727 12.187 9.81491 11.0068 9.23376 10.5369C8.22177 9.657 7.85942 9.14413 7.08452 8.014C5.31841 5.43828 5.42304 -0.297335 9.56205 0.695244C10.6929 0.966467 11.6981 1.78626 12.3425 2.88591C12.8235 1.48791 13.6993 0.397199 15.0335 0.00500585Z" fill="#FE373A"/>
</g>
</svg>
