<svg preserveAspectRatio="none" overflow="visible" style="display: block;" width="49.3863" height="57.1259" viewBox="0 0 49.3863 57.1259" fill="none" xmlns="http://www.w3.org/2000/svg">
<g id="Group 5">
<path id="Vector" d="M10.597 0.0811564C13.1368 -0.289032 16.0825 0.661417 18.3109 1.83218C20.1927 1.56203 21.88 0.933591 23.6887 0.488869C26.8893 -0.298012 30.2852 0.204783 33.1744 1.75765C34.7183 0.843807 37.0595 0.389129 38.8228 0.633159C41.3793 0.987002 43.3221 2.36957 44.8603 4.38978C48.7454 9.49276 49.9232 16.225 49.1726 22.4907C48.8099 25.52 47.9942 28.7326 45.4653 30.6983C44.0388 31.8072 42.2123 32.2354 40.4248 31.9868C39.2833 34.3315 37.1499 36.552 36.2755 39.2403C35.4085 41.9086 35.4655 44.6798 35.6377 47.4533C35.7827 49.7814 36.1488 51.2513 35.4851 53.5288C34.2503 56.597 31.3858 57.3601 28.3475 57.0683C25.6212 56.8065 23.2702 55.5374 21.5443 53.4067C20.7574 52.4306 20.1576 51.3169 19.7759 50.1227C18.6194 46.5152 19.6343 43.5972 20.2623 39.9955C20.4195 39.0924 20.4966 38.3494 20.5916 37.4464C15.8585 37.8533 9.59133 38.4012 5.12018 36.5716C3.13069 35.7572 1.38587 34.0334 0.638663 32.0092C-0.498266 28.9277 0.00888962 26.3593 1.27822 23.4801C-0.810851 19.4247 -0.181075 16.1063 2.02313 12.2926C1.22354 9.33725 2.41918 5.74846 4.28375 3.41487C6.0067 1.25831 7.92019 0.367891 10.597 0.0811564Z" fill="#FEFEFE"/>
<path id="Vector_2" d="M11.3183 2.72993C13.4028 2.65298 15.9921 3.35732 17.6638 4.62116C19.1513 4.5198 20.9808 4.03094 22.4165 3.6379C23.2851 3.40009 24.1435 3.09039 25.0398 2.95491C27.8766 2.50028 30.7774 3.18996 33.1053 4.87244C35.0873 3.5716 37.5264 2.69902 39.8348 3.65252C42.3424 4.68803 44.0958 7.74842 45.0906 10.1389C46.581 13.7202 46.912 17.7612 46.5827 21.5893C46.2189 26.0779 44.4591 31.1222 38.8585 28.7047C38.147 30.9776 37.1908 32.2682 35.8651 34.2314C32.4404 39.3048 32.6281 43.7526 33.1318 49.6767C33.3886 51.8931 33.2078 53.8655 30.6749 54.323C28.7257 54.6672 26.7195 54.2275 25.0933 53.0994C24.0859 52.4018 23.2736 51.458 22.7342 50.3575C20.8052 46.4346 22.9374 42.1906 23.2345 38.1065C23.341 36.6429 23.2604 35.9914 23.0002 34.5514C21.7205 34.67 20.2445 34.8047 18.9487 34.8714C14.8362 35.0826 8.55055 35.8308 4.98894 33.4331C1.55858 31.1241 2.43012 26.1559 4.57446 23.2494C1.46186 20.2814 2.54526 15.7751 5.01541 12.8234C3.83473 10.0348 4.64584 7.0835 6.58466 4.84441C7.90926 3.31485 9.34265 2.83001 11.3183 2.72993Z" fill="black"/>
<path id="Vector_3" d="M25.6707 3.58988C27.5283 3.41601 29.3998 3.73054 31.0986 4.50223C33.9038 5.79961 35.4465 8.16797 35.6601 11.1459C35.6843 11.4787 35.6929 12.1989 35.7914 12.4659C35.9428 12.5866 36.2179 12.6639 36.321 12.4813C36.4822 12.195 36.3958 11.4441 36.3722 11.1108C36.2225 8.95284 35.3159 6.78166 33.662 5.34914C34.1329 5.07305 34.5888 4.80813 35.0914 4.5839C36.5178 3.94717 37.9944 3.72921 39.4773 4.28755C41.7305 5.13618 43.3826 8.00405 44.306 10.1087C45.87 13.737 46.2367 17.8088 45.8608 21.7126C45.7123 23.2558 45.4544 24.8102 44.7768 26.2148C44.3365 27.1287 43.6854 27.9903 42.7287 28.3868C41.4651 28.9106 40.2027 28.4798 39.0289 28.0076C39.0611 27.8428 39.0899 27.6774 39.1164 27.5116C39.2902 26.4264 39.5199 20.6005 38.1498 20.4521C37.8643 20.6771 38.0836 21.3448 38.1556 21.6416C39.2171 26.0323 38.3709 29.6766 35.6555 33.2443C34.1985 35.1592 32.8785 38.1111 32.4583 40.5359C31.8924 43.8009 32.228 47.2645 32.4629 50.5624C32.483 51.6335 32.4911 53.0395 31.2402 53.4361C28.5185 54.2988 25.4698 53.1949 23.8752 50.8772C21.1633 46.9353 23.7463 42.2999 23.942 38.0351C24.0306 36.1013 23.9247 34.8898 23.2189 33.0878C23.1107 32.8069 22.8649 32.213 22.4884 32.3419C22.2254 32.7966 22.5656 33.3951 22.7573 33.8262C20.1795 34.0547 17.1866 34.3448 14.6157 34.4092C11.6689 34.4081 7.15054 34.5502 4.86747 32.4132C2.23612 29.8382 3.47553 25.2968 5.77817 22.9265C7.11427 21.5515 8.61963 21.0271 10.5199 21.0406C13.1524 21.0592 15.8804 21.8598 17.8175 23.7066C19.4317 25.245 19.8859 27.5209 18.9309 29.5429C17.5775 32.278 13.7505 32.2573 11.1479 31.8855C10.5343 31.7974 9.91889 31.6288 9.30409 31.5677C9.12678 31.5506 9.02489 31.6371 8.91551 31.7468C8.87982 32.3051 9.56428 32.343 9.97127 32.4253C13.6641 33.173 19.2175 33.1603 20.0304 28.4002C20.3314 26.641 19.9273 25.2792 18.8894 23.8258C19.0091 22.6699 19.1669 21.5894 19.4674 20.5131C20.4765 16.8735 23.1096 13.1497 27.0845 12.5373C27.5105 12.4716 28.0994 12.3228 27.6734 11.7986C27.3798 11.6838 26.826 11.82 26.5244 11.8929C23.5114 12.6205 21.6652 14.5232 20.1219 17.0774C19.9757 15.3357 19.2147 14.2387 18.0392 13.0476C20.267 11.6696 20.7027 8.64319 19.3937 6.46057C19.1064 5.98131 18.8186 5.65976 18.4398 5.25981C19.7598 5.12358 21.5518 4.63069 22.8166 4.27863C23.8867 3.98067 24.5355 3.72818 25.6707 3.58988Z" fill="#FBEB1C"/>
<path id="Vector_4" d="M31.2667 12.0657C31.5666 12.19 32.0553 12.5852 32.1077 12.9258L32.026 12.9666C31.7692 12.887 31.5603 12.6545 31.3536 12.4646L31.7853 13.4963C31.5067 13.3989 31.216 13.1792 30.9558 13.3296C31.1066 13.5074 31.2287 13.6007 31.2494 13.8058L31.1435 13.8077C30.8971 13.6653 30.3997 13.3045 30.4164 12.9918L30.5177 12.9047C30.7722 12.8537 31.0704 12.9815 31.326 13.0633L31.2903 12.9454C31.1602 12.5084 31.0715 12.4281 31.2667 12.0657Z" fill="#FBEB1C"/>
<path id="Vector_5" d="M25.5354 6.4768C25.8912 6.50845 26.495 7.01337 26.5589 7.34143L26.4881 7.42045C26.3327 7.40831 26.0633 7.12468 25.9142 7.00106L25.8595 7.03927C25.8635 7.329 25.9994 7.56238 26.1151 7.84026C25.8773 7.74097 25.6315 7.60751 25.384 7.61585L25.3264 7.72486C25.5596 7.98103 25.6995 8.16924 25.9038 8.45096C25.5567 8.27634 24.8112 7.76797 24.8521 7.33786L24.9718 7.26356C25.2268 7.22684 25.5158 7.36986 25.7645 7.46466C25.6045 7.12152 25.4301 6.84537 25.5354 6.4768Z" fill="#FBEB1C"/>
<path id="Vector_6" d="M38.0537 17.1936C38.3548 17.1576 38.6213 17.5562 38.7762 17.7702L38.2483 18.305C37.9288 18.4239 37.5719 18.291 37.588 17.9186C37.6047 17.5213 37.7803 17.4278 38.0537 17.1936Z" fill="#FBEB1C"/>
<path id="Vector_7" d="M38.0249 17.5454C38.1614 17.5148 38.2966 17.5999 38.3277 17.7357C38.3594 17.8716 38.2748 18.0072 38.1389 18.0394C38.0025 18.0718 37.8655 17.9867 37.8338 17.8498C37.8021 17.7128 37.8879 17.5762 38.0249 17.5454Z" fill="#FBEB1C"/>
<path id="Vector_8" d="M26.8059 5.85592C26.8422 5.86749 27.4161 6.32632 27.5001 6.39124C27.3073 6.61317 27.1081 6.8294 26.9026 7.03959C26.5883 7.15176 26.2596 6.80827 26.2158 6.50162C26.2786 6.23417 26.5797 6.04269 26.8059 5.85592Z" fill="#FBEB1C"/>
<path id="Vector_9" d="M26.6752 6.25872C26.8013 6.19558 26.9544 6.24352 27.0212 6.36698C27.0885 6.49043 27.0454 6.64491 26.9245 6.71604C26.8421 6.7641 26.7403 6.76364 26.6591 6.71495C26.5773 6.6662 26.529 6.57688 26.5324 6.48191C26.5359 6.38695 26.5906 6.30137 26.6752 6.25872Z" fill="#FBEB1C"/>
<path id="Vector_10" d="M9.84923 11.1887C11.5089 10.9636 13.7309 11.5008 15.2979 12.164C18.2861 13.4284 20.3959 16.2706 18.989 19.5468C18.4997 20.6862 17.5383 21.3419 16.3859 21.7743C14.8442 20.9793 13.7136 20.641 12.0085 20.3953C11.5728 20.3221 10.7996 20.2919 10.3529 20.3106C7.98236 20.4103 6.63244 20.9996 5.03441 22.6929C1.79056 19.6332 3.81458 13.9654 7.2294 11.9078C8.00539 11.44 8.96099 11.2944 9.84923 11.1887Z" fill="#FBEB1C"/>
<path id="Vector_11" d="M10.9844 3.47665C14.671 3.14917 20.3205 5.5783 19.3039 10.0957C19.0333 11.2984 18.4611 11.9319 17.4554 12.5838C16.1544 11.662 15.1361 11.2592 13.6192 10.8234C11.1934 10.2565 8.20917 10.1613 6.15004 11.7684C5.94625 11.9275 5.74305 12.1058 5.54675 12.2757C4.38391 9.10027 6.07693 5.17433 9.2091 3.82866C9.74849 3.59694 10.4019 3.53323 10.9844 3.47665Z" fill="#FBEB1C"/>
</g>
</svg>
